<svg xmlns="http://www.w3.org/2000/svg" xmlns:xlink="http://www.w3.org/1999/xlink" width="500" zoomAndPan="magnify" viewBox="0 0 375 374.999991" height="500" preserveAspectRatio="xMidYMid meet" version="1.2"><defs><clipPath id="87a1be503a"><path d="M 47.984375 47.984375 L 326.984375 47.984375 L 326.984375 326.984375 L 47.984375 326.984375 Z M 47.984375 47.984375 "/></clipPath><clipPath id="52e4013c00"><path d="M 187.484375 47.984375 C 110.441406 47.984375 47.984375 110.441406 47.984375 187.484375 C 47.984375 264.527344 110.441406 326.984375 187.484375 326.984375 C 264.527344 326.984375 326.984375 264.527344 326.984375 187.484375 C 326.984375 110.441406 264.527344 47.984375 187.484375 47.984375 Z M 187.484375 47.984375 "/></clipPath></defs><g id="5319724e87"><g clip-rule="nonzero" clip-path="url(#87a1be503a)"><g clip-rule="nonzero" clip-path="url(#52e4013c00)"><path style="fill:none;stroke-width:2;stroke-linecap:butt;stroke-linejoin:miter;stroke:#060606;stroke-opacity:1;stroke-miterlimit:4;" d="M 186.017075 0.00144299 C 83.28448 0.00144299 0.00143699 83.284486 0.00143699 186.017081 C 0.00143699 288.749675 83.28448 372.032718 186.017075 372.032718 C 288.749669 372.032718 372.032712 288.749675 372.032712 186.017081 C 372.032712 83.284486 288.749669 0.00144299 186.017075 0.00144299 Z M 186.017075 0.00144299 " transform="matrix(0.749937,0,0,0.749937,47.983297,47.983293)"/></g></g><g style="fill:#f6f5f2;fill-opacity:1;"><g transform="translate(134.384402, 216.246123)"><path style="stroke:none" d="M 103.921875 -86.472656 L 103.921875 -81.433594 L 101.328125 -81.359375 C 98.851562 -81.285156 97.039062 -81.035156 95.890625 -80.609375 C 95.257812 -80.375 94.832031 -79.941406 94.617188 -79.316406 C 94.226562 -78.171875 94.027344 -76.242188 94.027344 -73.527344 L 94.027344 -12.945312 C 94.027344 -10.304688 94.226562 -8.386719 94.625 -7.195312 C 94.835938 -6.566406 95.234375 -6.148438 95.828125 -5.945312 C 97.023438 -5.539062 98.882812 -5.257812 101.40625 -5.109375 L 103.921875 -4.960938 L 103.921875 2.914062 L 101.019531 2.660156 C 99.210938 2.503906 96.933594 2.40625 94.1875 2.367188 C 91.390625 2.324219 88.574219 2.304688 85.738281 2.304688 C 82.578125 2.304688 79.617188 2.324219 76.863281 2.367188 C 74.164062 2.40625 71.996094 2.503906 70.359375 2.660156 L 67.433594 2.9375 L 67.433594 -4.960938 L 69.949219 -5.109375 C 72.472656 -5.257812 74.335938 -5.539062 75.527344 -5.945312 C 76.121094 -6.148438 76.519531 -6.566406 76.730469 -7.195312 C 77.128906 -8.386719 77.328125 -10.304688 77.328125 -12.945312 L 77.328125 -85.464844 L 83.6875 -80.695312 L 52.421875 3.28125 L 46.78125 3.28125 L 15.339844 -77.6875 L 17.832031 -78.65625 L 20.503906 -78.65625 L 20.503906 -14.167969 C 20.503906 -11.511719 20.726562 -9.480469 21.171875 -8.074219 C 21.457031 -7.175781 22.023438 -6.542969 22.867188 -6.175781 C 24.160156 -5.613281 26.230469 -5.257812 29.082031 -5.109375 L 31.617188 -4.980469 L 31.617188 2.984375 L 28.652344 2.65625 C 27.269531 2.5 25.4375 2.40625 23.160156 2.367188 C 20.8125 2.324219 18.589844 2.304688 16.488281 2.304688 C 14.46875 2.304688 12.433594 2.324219 10.371094 2.367188 C 8.382812 2.40625 6.738281 2.5 5.441406 2.652344 L 2.457031 3.003906 L 2.457031 -4.960938 L 4.972656 -5.109375 C 7.386719 -5.25 9.148438 -5.589844 10.253906 -6.128906 C 10.96875 -6.476562 11.457031 -7.105469 11.726562 -8.015625 C 12.140625 -9.441406 12.351562 -11.492188 12.351562 -14.167969 L 12.351562 -73.527344 C 12.351562 -76.242188 12.15625 -78.171875 11.761719 -79.316406 C 11.546875 -79.941406 11.125 -80.375 10.488281 -80.609375 C 9.339844 -81.035156 7.527344 -81.285156 5.050781 -81.359375 L 2.457031 -81.433594 L 2.457031 -89.304688 L 5.285156 -89.140625 C 6.652344 -89.058594 8.367188 -88.976562 10.425781 -88.898438 C 12.464844 -88.816406 14.488281 -88.777344 16.488281 -88.777344 C 18.242188 -88.777344 20.054688 -88.816406 21.933594 -88.898438 C 23.828125 -88.976562 25.417969 -89.058594 26.703125 -89.136719 L 28.667969 -89.261719 L 57.96875 -12.070312 L 47.722656 -7.25 L 78.144531 -88.777344 L 85.738281 -88.777344 C 88.5625 -88.777344 91.367188 -88.816406 94.148438 -88.898438 C 96.945312 -88.980469 99.273438 -89.058594 101.132812 -89.140625 L 103.921875 -89.261719 Z M 98.578125 -86.472656 L 101.25 -86.472656 L 101.367188 -83.800781 C 99.480469 -83.71875 97.125 -83.640625 94.304688 -83.558594 C 91.46875 -83.476562 88.613281 -83.433594 85.738281 -83.433594 L 80 -83.433594 L 80 -86.105469 L 82.5 -85.171875 L 55.019531 -11.523438 L 52.519531 -12.457031 L 51.378906 -14.875 L 53.457031 -15.851562 L 54.59375 -13.433594 L 52.097656 -12.488281 L 24.371094 -85.523438 L 26.871094 -86.472656 L 27.035156 -83.804688 C 25.714844 -83.722656 24.089844 -83.640625 22.160156 -83.558594 C 20.207031 -83.476562 18.316406 -83.433594 16.488281 -83.433594 C 14.417969 -83.433594 12.328125 -83.476562 10.214844 -83.558594 C 8.121094 -83.640625 6.375 -83.722656 4.972656 -83.804688 L 5.128906 -86.472656 L 7.800781 -86.472656 L 7.800781 -84.027344 L 5.128906 -84.027344 L 5.207031 -86.699219 C 8.269531 -86.609375 10.648438 -86.25 12.351562 -85.617188 C 14.566406 -84.792969 16.054688 -83.273438 16.816406 -81.046875 C 17.402344 -79.34375 17.695312 -76.835938 17.695312 -73.527344 L 17.695312 -14.167969 C 17.695312 -10.980469 17.414062 -8.429688 16.855469 -6.515625 C 16.144531 -4.089844 14.722656 -2.359375 12.585938 -1.320312 C 10.84375 -0.476562 8.410156 0.0390625 5.285156 0.222656 L 5.128906 -2.441406 L 7.800781 -2.441406 L 7.800781 0 L 5.128906 0 L 4.816406 -2.652344 C 6.289062 -2.828125 8.105469 -2.933594 10.269531 -2.976562 C 12.363281 -3.019531 14.433594 -3.039062 16.488281 -3.039062 C 18.621094 -3.039062 20.875 -3.019531 23.25 -2.976562 C 25.695312 -2.933594 27.691406 -2.828125 29.242188 -2.65625 L 28.945312 0 L 26.273438 0 L 26.273438 -2.441406 L 28.945312 -2.441406 L 28.808594 0.226562 C 25.308594 0.046875 22.617188 -0.453125 20.734375 -1.277344 C 18.402344 -2.292969 16.851562 -4.019531 16.078125 -6.460938 C 15.464844 -8.390625 15.160156 -10.960938 15.160156 -14.167969 L 15.160156 -78.65625 L 20.324219 -79.621094 L 51.101562 -0.355469 L 48.609375 0.609375 L 48.609375 -2.0625 L 50.5625 -2.0625 L 50.5625 0.609375 L 48.058594 -0.320312 L 77.984375 -80.6875 L 80.488281 -79.753906 L 78.882812 -77.617188 L 78.394531 -77.984375 L 80 -80.121094 L 82.671875 -80.121094 L 82.671875 -12.945312 C 82.671875 -9.726562 82.378906 -7.246094 81.800781 -5.507812 C 81.035156 -3.203125 79.519531 -1.667969 77.261719 -0.890625 C 75.605469 -0.324219 73.273438 0.046875 70.261719 0.222656 L 70.105469 -2.441406 L 72.777344 -2.441406 L 72.777344 0 L 70.105469 0 L 69.851562 -2.660156 C 71.632812 -2.828125 73.945312 -2.933594 76.785156 -2.976562 C 79.566406 -3.019531 82.550781 -3.039062 85.738281 -3.039062 C 88.601562 -3.039062 91.445312 -3.019531 94.265625 -2.976562 C 97.140625 -2.933594 99.542969 -2.832031 101.480469 -2.660156 L 101.25 0 L 98.578125 0 L 98.578125 -2.441406 L 101.25 -2.441406 L 101.09375 0.222656 C 98.082031 0.046875 95.75 -0.324219 94.09375 -0.890625 C 91.835938 -1.667969 90.324219 -3.203125 89.554688 -5.507812 C 88.976562 -7.246094 88.683594 -9.726562 88.683594 -12.945312 L 88.683594 -73.527344 C 88.683594 -76.835938 88.976562 -79.34375 89.5625 -81.046875 C 90.324219 -83.273438 91.8125 -84.792969 94.03125 -85.617188 C 95.730469 -86.25 98.109375 -86.609375 101.171875 -86.699219 L 101.25 -84.027344 L 98.578125 -84.027344 Z M 98.578125 -86.472656 "/></g></g><g style="fill:#060606;fill-opacity:1;"><g transform="translate(134.384402, 216.246123)"><path style="stroke:none" d="M 101.25 -86.46875 L 101.25 -84.03125 C 98.488281 -83.945312 96.394531 -83.640625 94.96875 -83.109375 C 93.539062 -82.585938 92.582031 -81.613281 92.09375 -80.1875 C 91.601562 -78.757812 91.359375 -76.539062 91.359375 -73.53125 L 91.359375 -12.953125 C 91.359375 -10.015625 91.601562 -7.8125 92.09375 -6.34375 C 92.582031 -4.882812 93.539062 -3.910156 94.96875 -3.421875 C 96.394531 -2.929688 98.488281 -2.601562 101.25 -2.4375 L 101.25 0 C 99.382812 -0.164062 97.046875 -0.265625 94.234375 -0.296875 C 91.421875 -0.335938 88.59375 -0.359375 85.75 -0.359375 C 82.570312 -0.359375 79.597656 -0.335938 76.828125 -0.296875 C 74.054688 -0.265625 71.816406 -0.164062 70.109375 0 L 70.109375 -2.4375 C 72.878906 -2.601562 74.972656 -2.929688 76.390625 -3.421875 C 77.816406 -3.910156 78.773438 -4.882812 79.265625 -6.34375 C 79.753906 -7.8125 80 -10.015625 80 -12.953125 L 80 -80.125 L 80.484375 -79.765625 L 50.5625 0.609375 L 48.609375 0.609375 L 17.828125 -78.65625 L 17.828125 -14.171875 C 17.828125 -11.234375 18.09375 -8.929688 18.625 -7.265625 C 19.15625 -5.597656 20.210938 -4.414062 21.796875 -3.71875 C 23.390625 -3.03125 25.773438 -2.601562 28.953125 -2.4375 L 28.953125 0 C 27.484375 -0.164062 25.566406 -0.265625 23.203125 -0.296875 C 20.847656 -0.335938 18.609375 -0.359375 16.484375 -0.359375 C 14.453125 -0.359375 12.394531 -0.335938 10.3125 -0.296875 C 8.238281 -0.265625 6.507812 -0.164062 5.125 0 L 5.125 -2.4375 C 7.894531 -2.601562 9.992188 -3.03125 11.421875 -3.71875 C 12.847656 -4.414062 13.800781 -5.597656 14.28125 -7.265625 C 14.769531 -8.929688 15.015625 -11.234375 15.015625 -14.171875 L 15.015625 -73.53125 C 15.015625 -76.539062 14.769531 -78.757812 14.28125 -80.1875 C 13.800781 -81.613281 12.847656 -82.585938 11.421875 -83.109375 C 9.992188 -83.640625 7.894531 -83.945312 5.125 -84.03125 L 5.125 -86.46875 C 6.507812 -86.394531 8.238281 -86.316406 10.3125 -86.234375 C 12.394531 -86.148438 14.453125 -86.109375 16.484375 -86.109375 C 18.273438 -86.109375 20.128906 -86.148438 22.046875 -86.234375 C 23.960938 -86.316406 25.570312 -86.394531 26.875 -86.46875 L 54.59375 -13.4375 L 52.515625 -12.453125 L 80 -86.109375 C 80.976562 -86.109375 81.9375 -86.109375 82.875 -86.109375 C 83.8125 -86.109375 84.769531 -86.109375 85.75 -86.109375 C 88.59375 -86.109375 91.421875 -86.148438 94.234375 -86.234375 C 97.046875 -86.316406 99.382812 -86.394531 101.25 -86.46875 Z M 101.25 -86.46875 "/></g></g><g style="fill:#060606;fill-opacity:1;"><g transform="translate(102.955107, 235.776472)"><path style="stroke:none" d="M 0.953125 1.078125 L 8.296875 -5.5 L 9.078125 -4.640625 L 7.296875 2.140625 L 14.21875 1.109375 L 14.984375 1.953125 L 7.640625 8.53125 L 6.8125 7.609375 L 12.421875 2.578125 L 6.59375 3.4375 L 5.90625 2.671875 L 7.40625 -3.046875 L 1.78125 1.984375 Z M 0.953125 1.078125 "/></g></g><g style="fill:#060606;fill-opacity:1;"><g transform="translate(117.869168, 251.071227)"><path style="stroke:none" d="M 3.953125 3.265625 C 3.015625 2.535156 2.503906 1.671875 2.421875 0.671875 C 2.335938 -0.328125 2.691406 -1.34375 3.484375 -2.375 L 7.046875 -7.015625 L 8.015625 -6.28125 L 4.515625 -1.703125 C 3.898438 -0.910156 3.613281 -0.175781 3.65625 0.5 C 3.695312 1.1875 4.046875 1.785156 4.703125 2.296875 C 6.066406 3.335938 7.367188 3.050781 8.609375 1.4375 L 12.109375 -3.140625 L 13.09375 -2.390625 L 9.53125 2.25 C 8.738281 3.28125 7.847656 3.882812 6.859375 4.0625 C 5.867188 4.25 4.898438 3.984375 3.953125 3.265625 Z M 3.953125 3.265625 "/></g></g><g style="fill:#060606;fill-opacity:1;"><g transform="translate(133.13017, 261.877291)"><path style="stroke:none" d="M 1.28125 0.65625 L 5.828125 -8.09375 L 6.859375 -7.546875 L 8.125 1.8125 L 11.6875 -5.03125 L 12.765625 -4.484375 L 8.21875 4.265625 L 7.203125 3.734375 L 5.921875 -5.625 L 2.359375 1.21875 Z M 1.28125 0.65625 "/></g></g><g style="fill:#060606;fill-opacity:1;"><g transform="translate(150.447865, 270.034108)"><path style="stroke:none" d="M 1.375 0.421875 L 4.3125 -8.984375 L 7.5625 -7.96875 C 8.53125 -7.664062 9.3125 -7.203125 9.90625 -6.578125 C 10.5 -5.960938 10.882812 -5.238281 11.0625 -4.40625 C 11.25 -3.582031 11.195312 -2.703125 10.90625 -1.765625 C 10.613281 -0.847656 10.15625 -0.0976562 9.53125 0.484375 C 8.914062 1.078125 8.1875 1.457031 7.34375 1.625 C 6.5 1.800781 5.59375 1.738281 4.625 1.4375 Z M 2.90625 -0.34375 L 4.984375 0.296875 C 5.703125 0.523438 6.375 0.570312 7 0.4375 C 7.632812 0.3125 8.1875 0.03125 8.65625 -0.40625 C 9.132812 -0.851562 9.484375 -1.429688 9.703125 -2.140625 C 9.921875 -2.859375 9.957031 -3.53125 9.8125 -4.15625 C 9.675781 -4.789062 9.378906 -5.34375 8.921875 -5.8125 C 8.472656 -6.28125 7.878906 -6.628906 7.140625 -6.859375 L 5.125 -7.484375 Z M 2.90625 -0.34375 "/></g></g><g style="fill:#060606;fill-opacity:1;"><g transform="translate(168.962757, 275.039997)"><path style="stroke:none" d="M 5.84375 0.890625 C 4.863281 0.773438 4.015625 0.457031 3.296875 -0.0625 C 2.585938 -0.59375 2.0625 -1.265625 1.71875 -2.078125 C 1.382812 -2.898438 1.273438 -3.804688 1.390625 -4.796875 C 1.515625 -5.796875 1.832031 -6.648438 2.34375 -7.359375 C 2.863281 -8.066406 3.53125 -8.585938 4.34375 -8.921875 C 5.164062 -9.253906 6.066406 -9.363281 7.046875 -9.25 C 8.054688 -9.132812 8.914062 -8.816406 9.625 -8.296875 C 10.332031 -7.773438 10.851562 -7.109375 11.1875 -6.296875 C 11.53125 -5.484375 11.640625 -4.578125 11.515625 -3.578125 C 11.398438 -2.585938 11.082031 -1.734375 10.5625 -1.015625 C 10.050781 -0.304688 9.390625 0.210938 8.578125 0.546875 C 7.765625 0.890625 6.851562 1.003906 5.84375 0.890625 Z M 2.640625 -4.640625 C 2.554688 -3.878906 2.644531 -3.191406 2.90625 -2.578125 C 3.164062 -1.972656 3.554688 -1.472656 4.078125 -1.078125 C 4.609375 -0.691406 5.242188 -0.453125 5.984375 -0.359375 C 6.742188 -0.265625 7.425781 -0.34375 8.03125 -0.59375 C 8.644531 -0.851562 9.144531 -1.25 9.53125 -1.78125 C 9.925781 -2.320312 10.164062 -2.972656 10.25 -3.734375 C 10.34375 -4.492188 10.257812 -5.175781 10 -5.78125 C 9.75 -6.394531 9.359375 -6.898438 8.828125 -7.296875 C 8.304688 -7.691406 7.664062 -7.9375 6.90625 -8.03125 C 6.164062 -8.125 5.488281 -8.039062 4.875 -7.78125 C 4.269531 -7.519531 3.769531 -7.117188 3.375 -6.578125 C 2.976562 -6.046875 2.734375 -5.398438 2.640625 -4.640625 Z M 2.640625 -4.640625 "/></g></g><g style="fill:#060606;fill-opacity:1;"><g transform="translate(189.057289, 276.508862)"><path style="stroke:none" d=""/></g></g><g style="fill:#060606;fill-opacity:1;"><g transform="translate(200.801436, 275.770729)"><path style="stroke:none" d="M 1.421875 -0.234375 L -0.140625 -9.96875 L 5.421875 -10.859375 L 5.609375 -9.71875 L 1.265625 -9.015625 L 1.796875 -5.65625 L 5.796875 -6.296875 L 5.984375 -5.171875 L 1.984375 -4.53125 L 2.640625 -0.421875 Z M 1.421875 -0.234375 "/></g></g><g style="fill:#060606;fill-opacity:1;"><g transform="translate(216.741803, 272.632049)"><path style="stroke:none" d="M 4.90625 -1.453125 C 3.78125 -1.078125 2.78125 -1.132812 1.90625 -1.625 C 1.039062 -2.125 0.40625 -2.992188 0 -4.234375 L -1.84375 -9.78125 L -0.6875 -10.15625 L 1.140625 -4.6875 C 1.453125 -3.738281 1.894531 -3.085938 2.46875 -2.734375 C 3.050781 -2.390625 3.738281 -2.347656 4.53125 -2.609375 C 6.164062 -3.148438 6.664062 -4.382812 6.03125 -6.3125 L 4.203125 -11.78125 L 5.375 -12.171875 L 7.21875 -6.625 C 7.625 -5.382812 7.625 -4.304688 7.21875 -3.390625 C 6.8125 -2.472656 6.039062 -1.828125 4.90625 -1.453125 Z M 4.90625 -1.453125 "/></g></g><g style="fill:#060606;fill-opacity:1;"><g transform="translate(234.249581, 266.063871)"><path style="stroke:none" d="M 1.265625 -0.6875 L -3.421875 -9.359375 L -2.390625 -9.90625 L 6.0625 -5.71875 L 2.390625 -12.5 L 3.46875 -13.078125 L 8.15625 -4.40625 L 7.140625 -3.859375 L -1.328125 -8.0625 L 2.34375 -1.265625 Z M 1.265625 -0.6875 "/></g></g><g style="fill:#060606;fill-opacity:1;"><g transform="translate(250.68864, 256.299299)"><path style="stroke:none" d="M 1.125 -0.890625 L -4.984375 -8.625 L -4.015625 -9.390625 L -1.375 -6.0625 L -0.265625 -6.9375 C 0.253906 -7.34375 0.570312 -7.742188 0.6875 -8.140625 C 0.800781 -8.546875 0.769531 -9.019531 0.59375 -9.5625 L -0.296875 -12.328125 L 0.734375 -13.140625 L 1.78125 -9.859375 C 1.90625 -9.472656 1.972656 -9.109375 1.984375 -8.765625 C 1.992188 -8.429688 1.945312 -8.101562 1.84375 -7.78125 L 7.140625 -5.625 L 6.015625 -4.734375 L 1.21875 -6.71875 C 1 -6.476562 0.742188 -6.242188 0.453125 -6.015625 L -0.65625 -5.140625 L 2.09375 -1.65625 Z M 1.125 -0.890625 "/></g></g><g style="fill:#060606;fill-opacity:1;"><g transform="translate(264.467841, 244.594142)"><path style="stroke:none" d="M 4.0625 -4.296875 C 3.40625 -3.554688 2.65625 -3.039062 1.8125 -2.75 C 0.976562 -2.46875 0.128906 -2.421875 -0.734375 -2.609375 C -1.609375 -2.796875 -2.414062 -3.21875 -3.15625 -3.875 C -3.90625 -4.539062 -4.421875 -5.289062 -4.703125 -6.125 C -4.984375 -6.957031 -5.03125 -7.804688 -4.84375 -8.671875 C -4.65625 -9.535156 -4.234375 -10.335938 -3.578125 -11.078125 C -2.910156 -11.828125 -2.160156 -12.34375 -1.328125 -12.625 C -0.492188 -12.914062 0.347656 -12.96875 1.203125 -12.78125 C 2.066406 -12.601562 2.875 -12.179688 3.625 -11.515625 C 4.363281 -10.859375 4.878906 -10.109375 5.171875 -9.265625 C 5.460938 -8.429688 5.515625 -7.582031 5.328125 -6.71875 C 5.148438 -5.851562 4.726562 -5.046875 4.0625 -4.296875 Z M -2.3125 -4.828125 C -1.738281 -4.328125 -1.125 -4.003906 -0.46875 -3.859375 C 0.175781 -3.722656 0.8125 -3.757812 1.4375 -3.96875 C 2.0625 -4.175781 2.625 -4.5625 3.125 -5.125 C 3.625 -5.695312 3.941406 -6.304688 4.078125 -6.953125 C 4.210938 -7.597656 4.171875 -8.234375 3.953125 -8.859375 C 3.734375 -9.484375 3.335938 -10.046875 2.765625 -10.546875 C 2.191406 -11.054688 1.582031 -11.382812 0.9375 -11.53125 C 0.289062 -11.675781 -0.34375 -11.640625 -0.96875 -11.421875 C -1.59375 -11.210938 -2.15625 -10.820312 -2.65625 -10.25 C -3.15625 -9.6875 -3.472656 -9.082031 -3.609375 -8.4375 C -3.742188 -7.800781 -3.703125 -7.164062 -3.484375 -6.53125 C -3.273438 -5.90625 -2.882812 -5.335938 -2.3125 -4.828125 Z M -2.3125 -4.828125 "/></g></g></g></svg>